<?xml version="1.0" encoding="iso-8859-1"?>
<!-- Generator: Adobe Illustrator 19.0.0, SVG Export Plug-In . SVG Version: 6.00 Build 0)  -->
<svg version="1.1" id="Layer_1" xmlns="http://www.w3.org/2000/svg" xmlns:xlink="http://www.w3.org/1999/xlink" x="0px" y="0px"
	 viewBox="0 0 512 512" style="enable-background:new 0 0 512 512;" xml:space="preserve">
<g>
	<polygon style="fill:#FFC36E;" points="494.345,317.793 379.586,317.793 476.69,114.759 494.345,114.759 	"/>
	<polygon style="fill:#FFC36E;" points="361.931,317.793 150.069,317.793 247.172,114.759 264.828,114.759 	"/>
</g>
<path style="fill:#E1B464;" d="M233.361,143.637c6.638,3.996,14.327,6.432,22.639,6.432s16-2.436,22.639-6.432l-13.812-28.878
	h-17.655L233.361,143.637z"/>
<rect x="26.483" y="344.276" style="fill:#FF6464;" width="459.034" height="61.793"/>
<rect x="26.483" y="344.276" style="fill:#D2555A;" width="141.241" height="61.793"/>
<g>
	<path style="fill:#FFD782;" d="M494.345,344.276H17.655c-4.875,0-8.828-3.953-8.828-8.828v-17.655c0-4.875,3.953-8.828,8.828-8.828
		h476.69c4.875,0,8.828,3.953,8.828,8.828v17.655C503.172,340.323,499.22,344.276,494.345,344.276z"/>
	<path style="fill:#FFD782;" d="M494.345,432.552H17.655c-4.875,0-8.828-3.953-8.828-8.828v-17.655c0-4.875,3.953-8.828,8.828-8.828
		h476.69c4.875,0,8.828,3.953,8.828,8.828v17.655C503.172,428.599,499.22,432.552,494.345,432.552z"/>
	<circle style="fill:#FFD782;" cx="256" cy="326.621" r="52.966"/>
</g>
<circle style="fill:#FF6464;" cx="256" cy="326.621" r="26.483"/>
<path style="fill:#D2555A;" d="M273.655,344.276c-14.626,0-26.483-11.857-26.483-26.483c0-6.713,2.579-12.772,6.696-17.44
	c-13.611,1.103-24.351,12.372-24.351,26.268c0,14.626,11.857,26.483,26.483,26.483c7.913,0,14.934-3.54,19.787-9.043
	C275.072,344.119,274.386,344.276,273.655,344.276z"/>
<circle style="fill:#FFD782;" cx="414.897" cy="326.621" r="35.31"/>
<circle style="fill:#FF6464;" cx="414.897" cy="326.621" r="13.241"/>
<path style="fill:#D2555A;" d="M423.724,335.448c-7.313,0-13.241-5.929-13.241-13.241c0-3.357,1.289-6.387,3.348-8.721
	c-6.806,0.552-12.175,6.187-12.175,13.134c0,7.313,5.929,13.241,13.241,13.241c3.956,0,7.467-1.77,9.894-4.521
	C424.433,335.37,424.089,335.448,423.724,335.448z"/>
<path style="fill:#FFC36E;" d="M150.069,423.724v-17.655c0-4.875,3.953-8.828,8.828-8.828H17.655c-4.875,0-8.828,3.953-8.828,8.828
	v17.655c0,4.875,3.953,8.828,8.828,8.828h141.241C154.022,432.552,150.069,428.599,150.069,423.724z"/>
<circle style="fill:#FFD782;" cx="256" cy="105.931" r="26.483"/>
<path style="fill:#FFC36E;" d="M273.655,123.586c-14.626,0-26.483-11.857-26.483-26.483c0-6.713,2.579-12.772,6.696-17.44
	c-13.611,1.103-24.351,12.372-24.351,26.268c0,14.626,11.857,26.483,26.483,26.483c7.913,0,14.934-3.54,19.787-9.043
	C275.072,123.43,274.386,123.586,273.655,123.586z"/>
<path style="fill:#E1B464;" d="M494.345,149.18c-2.852,0.579-5.804,0.889-8.828,0.889c-8.312,0-16-2.436-22.639-6.432l13.812-28.878
	h17.655V149.18z"/>
<circle style="fill:#FFD782;" cx="485.517" cy="105.931" r="26.483"/>
<g>
	<path style="fill:#FFC36E;" d="M503.172,123.586c-14.626,0-26.483-11.857-26.483-26.483c0-6.713,2.579-12.772,6.696-17.44
		c-13.611,1.103-24.351,12.372-24.351,26.268c0,14.626,11.857,26.483,26.483,26.483c7.913,0,14.934-3.54,19.787-9.043
		C504.589,123.43,503.903,123.586,503.172,123.586z"/>
	<path style="fill:#FFC36E;" d="M150.069,335.448v-17.655c0-4.875,3.953-8.828,8.828-8.828h-30.705L35.31,114.759H17.655v194.207
		c-4.875,0-8.828,3.953-8.828,8.828v17.655c0,4.875,3.953,8.828,8.828,8.828h48.874c6.106,10.551,17.507,17.655,30.574,17.655
		s24.469-7.104,30.574-17.655h31.219C154.022,344.276,150.069,340.323,150.069,335.448z"/>
</g>
<circle style="fill:#FF6464;" cx="97.103" cy="326.621" r="13.241"/>
<path style="fill:#D2555A;" d="M105.931,335.448c-7.313,0-13.241-5.929-13.241-13.241c0-3.357,1.289-6.387,3.348-8.721
	c-6.806,0.552-12.175,6.187-12.175,13.134c0,7.313,5.929,13.241,13.241,13.241c3.956,0,7.467-1.77,9.894-4.521
	C106.639,335.37,106.296,335.448,105.931,335.448z"/>
<path style="fill:#E1B464;" d="M17.655,149.18c2.852,0.579,5.804,0.889,8.828,0.889c8.312,0,16-2.436,22.639-6.432L35.31,114.759
	H17.655V149.18z"/>
<circle style="fill:#FFD782;" cx="26.483" cy="105.931" r="26.483"/>
<path style="fill:#FFC36E;" d="M44.138,123.586c-14.626,0-26.483-11.857-26.483-26.483c0-6.713,2.579-12.772,6.696-17.44
	C10.74,80.767,0,92.035,0,105.931c0,14.626,11.857,26.483,26.483,26.483c7.913,0,14.934-3.54,19.787-9.043
	C45.555,123.43,44.868,123.586,44.138,123.586z"/>
<g>
</g>
<g>
</g>
<g>
</g>
<g>
</g>
<g>
</g>
<g>
</g>
<g>
</g>
<g>
</g>
<g>
</g>
<g>
</g>
<g>
</g>
<g>
</g>
<g>
</g>
<g>
</g>
<g>
</g>
</svg>
